# File created by Blade
# Date/Time:  Tue Apr 07 20:22:14 2015
# Frame Rate: 120.000 fps
#------------------------------------------------------
:FULLY-SPECIFIED
:DEGREES
2404
root 3.624275 32.887653 -10.347564 21.144031 3.091082 -2.938116
Spine -11.661504 -7.352169 -3.750461
Head -4.107275 -5.754795 8.384760
LeftShoulder -16.198726 44.862514 11.724269
LeftArm 46.638262 -5.415031 -88.435498
LeftForeArm 19.772462 -0.000000 84.169145
LeftHand 4.507947 -0.000000 8.426674
LeftHandThumb1 -26.253704 0.000000 33.147579
RightShoulder -6.792646 -10.812983 -16.165833
RightArm 5.670693 2.446143 89.659541
RightForeArm 0.429621 -0.000000 27.889337
RightHand 4.882036 -0.000000 2.925698
RightHandThumb1 -24.326973 -0.000000 -32.862282
LeftUpLeg -24.218064 -0.701770 -0.108521
LeftLeg 7.303634 -0.000000 -0.000000
LeftFoot -7.467712 0.328027 -22.601570
LeftToeBase -0.044792 -0.000000 0.000000
RightUpLeg -26.134308 -1.366841 -0.841849
RightLeg 14.284563 -0.000000 -0.000000
RightFoot -10.789756 -9.414192 10.092470
RightToeBase 2.264057 -0.000000 -0.000000
2405
root 3.623265 32.884771 -10.335205 21.158642 3.153466 -2.881818
Spine -11.796511 -7.337895 -3.758529
Head -4.047521 -5.812623 8.283166
LeftShoulder -16.198607 44.907404 11.677043
LeftArm 46.617513 -5.215142 -88.285289
LeftForeArm 19.764723 -0.000000 83.487858
LeftHand 4.579048 -0.000000 8.330570
LeftHandThumb1 -26.253704 0.000000 33.147579
RightShoulder -6.744344 -10.724043 -16.287205
RightArm 5.765840 2.373780 89.676805
RightForeArm 0.730125 -0.000000 28.048395
RightHand 4.915176 -0.000000 3.542008
RightHandThumb1 -24.326973 -0.000000 -32.862282
LeftUpLeg -24.177469 -0.782669 -0.146621
LeftLeg 7.238327 -0.000000 -0.000000
LeftFoot -7.498847 0.397838 -22.524931
LeftToeBase -0.027338 -0.000000 0.000000
RightUpLeg -25.877387 -1.540165 -0.822394
RightLeg 13.794624 -0.000000 -0.000000
RightFoot -10.638253 -9.424613 9.768706
RightToeBase 2.094042 -0.000000 -0.000000
2406
root 3.619201 32.881833 -10.323315 21.130044 3.192483 -2.851654
Spine -11.876197 -7.272600 -3.766271
Head -4.002088 -5.908773 8.201004
LeftShoulder -16.215238 44.968489 11.615300
LeftArm 46.654289 -5.005974 -88.133854
LeftForeArm 19.752555 -0.000000 82.788911
LeftHand 4.581273 0.000000 8.273461
LeftHandThumb1 -26.253704 0.000000 33.147579
RightShoulder -6.692956 -10.610736 -16.358914
RightArm 5.831510 2.387055 89.652583
RightForeArm 0.561989 0.000000 28.232636
RightHand 4.983576 -0.000000 2.962134
RightHandThumb1 -24.326973 -0.000000 -32.862282
LeftUpLeg -24.099331 -0.794837 -0.178058
LeftLeg 7.184461 -0.000000 -0.000000
LeftFoot -7.515110 0.422966 -22.445536
LeftToeBase -0.060459 -0.000000 0.000000
RightUpLeg -25.574027 -1.631277 -0.800904
RightLeg 13.286565 -0.000000 -0.000000
RightFoot -10.474027 -9.466624 9.408133
RightToeBase 1.991228 -0.000000 -0.000000
2407
root 3.614667 32.879232 -10.311030 21.102056 3.225912 -2.823994
Spine -11.955353 -7.198430 -3.766000
Head -3.961245 -6.022055 8.102743
LeftShoulder -16.219845 45.018830 11.543173
LeftArm 46.674116 -4.801217 -87.995387
LeftForeArm 19.707564 -0.000000 82.100323
LeftHand 4.636177 -0.000000 8.302373
LeftHandThumb1 -26.253704 0.000000 33.147579
RightShoulder -6.643156 -10.502782 -16.461305
RightArm 5.882922 2.334695 89.649170
RightForeArm 0.751485 -0.000000 28.430677
RightHand 5.070701 0.000000 3.647436
RightHandThumb1 -24.326973 -0.000000 -32.862282
LeftUpLeg -24.015947 -0.806947 -0.206558
LeftLeg 7.114893 -0.000000 -0.000000
LeftFoot -7.489317 0.462720 -22.354976
LeftToeBase -0.307342 -0.000000 0.000000
RightUpLeg -25.316542 -1.803751 -0.740891
RightLeg 12.857502 -0.000000 -0.000000
RightFoot -10.293654 -9.437593 9.038217
RightToeBase 1.839246 -0.000000 -0.000000
2408
root 3.607907 32.876153 -10.295791 21.051016 3.287895 -2.803512
Spine -12.017715 -7.152414 -3.754740
Head -3.905541 -6.072563 8.015700
LeftShoulder -16.202343 45.052574 11.507856
LeftArm 46.646113 -4.601592 -87.871640
LeftForeArm 19.707447 -0.000000 81.412402
LeftHand 4.631859 -0.000000 8.236205
LeftHandThumb1 -26.253704 0.000000 33.147579
RightShoulder -6.591810 -10.401412 -16.535893
RightArm 5.952292 2.362969 89.628482
RightForeArm 0.637442 -0.000000 28.609690
RightHand 5.268176 -0.000000 3.758070
RightHandThumb1 -24.326973 -0.000000 -32.862282
LeftUpLeg -23.903695 -0.820539 -0.217811
LeftLeg 7.036786 -0.000000 -0.000000
LeftFoot -7.486169 0.466232 -22.272270
LeftToeBase -0.395990 -0.000000 0.000000
RightUpLeg -25.023437 -1.768949 -0.750352
RightLeg 12.441285 -0.000000 -0.000000
RightFoot -10.223068 -9.570699 8.886031
RightToeBase 1.812228 -0.000000 -0.000000
2409
root 3.601651 32.874201 -10.281159 21.014882 3.333651 -2.775123
Spine -12.093832 -7.102913 -3.750434
Head -3.850185 -6.146618 7.913839
LeftShoulder -16.245340 45.112785 11.423288
LeftArm 46.674973 -4.395648 -87.765755
LeftForeArm 19.751333 -0.000000 80.691317
LeftHand 4.613375 -0.000000 8.073283
LeftHandThumb1 -26.253704 0.000000 33.147579
RightShoulder -6.531637 -10.322012 -16.606478
RightArm 6.032634 2.334769 89.606505
RightForeArm 0.602320 -0.000000 28.829923
RightHand 5.177329 -0.000000 3.676998
RightHandThumb1 -24.326973 -0.000000 -32.862282
LeftUpLeg -23.801017 -0.844470 -0.234559
LeftLeg 6.947364 -0.000000 -0.000000
LeftFoot -7.452551 0.506811 -22.164060
LeftToeBase -0.604047 -0.000000 0.000000
RightUpLeg -24.740273 -1.772884 -0.757623
RightLeg 12.002177 -0.000000 -0.000000
RightFoot -10.129831 -9.666012 8.716385
RightToeBase 1.841141 -0.000000 -0.000000
2410
root 3.593755 32.873125 -10.268154 20.983104 3.356878 -2.755756
Spine -12.175962 -7.017512 -3.755248
Head -3.787641 -6.222577 7.845088
LeftShoulder -16.218949 45.149344 11.406888
LeftArm 46.659388 -4.195580 -87.701371
LeftForeArm 19.787647 0.000000 79.978664
LeftHand 4.475496 -0.000000 8.014733
LeftHandThumb1 -26.253704 0.000000 33.147579
RightShoulder -6.486760 -10.253089 -16.659740
RightArm 6.133544 2.295928 89.581587
RightForeArm 0.718473 -0.000000 29.056141
RightHand 5.155048 -0.000000 3.471022
RightHandThumb1 -24.326973 -0.000000 -32.862282
LeftUpLeg -23.702931 -0.847221 -0.242966
LeftLeg 6.852569 -0.000000 -0.000000
LeftFoot -7.422731 0.520166 -22.061871
LeftToeBase -0.647899 -0.000000 0.000000
RightUpLeg -24.481298 -1.891113 -0.712895
RightLeg 11.577292 -0.000000 -0.000000
RightFoot -10.021237 -9.685732 8.481508
RightToeBase 1.961778 -0.000000 -0.000000
2411
root 3.586503 32.873200 -10.252546 20.931872 3.356105 -2.720248
Spine -12.241283 -6.918054 -3.786962
Head -3.715344 -6.289460 7.774913
LeftShoulder -16.227074 45.211585 11.362546
LeftArm 46.673315 -4.011803 -87.649386
LeftForeArm 19.869566 -0.000000 79.271879
LeftHand 4.392257 0.000000 7.670270
LeftHandThumb1 -26.253704 0.000000 33.147579
RightShoulder -6.432058 -10.157943 -16.701631
RightArm 6.191802 2.265173 89.528108
RightForeArm 0.792696 -0.000000 29.253889
RightHand 5.149519 -0.000000 3.369552
RightHandThumb1 -24.326973 -0.000000 -32.862282
LeftUpLeg -23.562801 -0.841393 -0.273121
LeftLeg 6.724505 -0.000000 -0.000000
LeftFoot -7.370111 0.558297 -21.998668
LeftToeBase -0.793328 -0.000000 0.000000
RightUpLeg -24.166943 -1.882530 -0.734083
RightLeg 11.092343 -0.000000 -0.000000
RightFoot -9.871716 -9.759015 8.307617
RightToeBase 1.939360 -0.000000 -0.000000
2412
root 3.579717 32.874017 -10.237260 20.874783 3.354971 -2.659635
Spine -12.295124 -6.815659 -3.846759
Head -3.636010 -6.383996 7.705835
LeftShoulder -16.253323 45.281952 11.300948
LeftArm 46.716699 -3.818707 -87.600092
LeftForeArm 19.970230 0.000000 78.565034
LeftHand 4.218692 -0.000000 7.305949
LeftHandThumb1 -26.253704 0.000000 33.147579
RightShoulder -6.413783 -10.117922 -16.726507
RightArm 6.303184 2.260340 89.498318
RightForeArm 0.673773 -0.000000 29.463540
RightHand 5.165365 -0.000000 3.343522
RightHandThumb1 -24.326973 -0.000000 -32.862282
LeftUpLeg -23.415366 -0.822882 -0.336034
LeftLeg 6.592054 -0.000000 -0.000000
LeftFoot -7.287508 0.585036 -21.921249
LeftToeBase -0.938199 -0.000000 0.000000
RightUpLeg -23.930289 -1.943509 -0.752111
RightLeg 10.775728 -0.000000 -0.000000
RightFoot -9.743392 -9.734256 8.173321
RightToeBase 1.812634 -0.000000 -0.000000
2413
root 3.568016 32.875223 -10.219847 20.814829 3.394534 -2.630056
Spine -12.355653 -6.752089 -3.865892
Head -3.540082 -6.464893 7.664796
LeftShoulder -16.256762 45.329513 11.268781
LeftArm 46.706022 -3.637221 -87.577897
LeftForeArm 20.079541 -0.000000 77.890662
LeftHand 3.953532 -0.000000 6.917526
LeftHandThumb1 -26.253704 0.000000 33.147579
RightShoulder -6.379092 -10.071659 -16.757009
RightArm 6.414415 2.243548 89.471272
RightForeArm 0.584653 0.000000 29.636567
RightHand 5.166492 0.000000 3.293958
RightHandThumb1 -24.326973 -0.000000 -32.862282
LeftUpLeg -23.267717 -0.797568 -0.355768
LeftLeg 6.467818 -0.000000 -0.000000
LeftFoot -7.219069 0.565483 -21.857349
LeftToeBase -1.059227 -0.000000 0.000000
RightUpLeg -23.669572 -1.899361 -0.768334
RightLeg 10.441628 -0.000000 -0.000000
RightFoot -9.646972 -9.867202 8.033426
RightToeBase 1.799127 -0.000000 -0.000000
